<svg width="24" height="24" viewBox="0 0 24 24" fill="none" xmlns="http://www.w3.org/2000/svg">
<g clip-path="url(#clip0_2955_32670)">
<path d="M3.22461 5.97485C3.22461 5.56064 3.5604 5.22485 3.97461 5.22485H19.9746C20.3888 5.22485 20.7246 5.56064 20.7246 5.97485C20.7246 6.38907 20.3888 6.72485 19.9746 6.72485H3.97461C3.5604 6.72485 3.22461 6.38907 3.22461 5.97485Z" fill="white"/>
<path d="M3.22461 11.9749C3.22461 11.5606 3.5604 11.2249 3.97461 11.2249H19.9746C20.3888 11.2249 20.7246 11.5606 20.7246 11.9749C20.7246 12.3891 20.3888 12.7249 19.9746 12.7249H3.97461C3.5604 12.7249 3.22461 12.3891 3.22461 11.9749Z" fill="white"/>
<path d="M3.97461 17.2249C3.5604 17.2249 3.22461 17.5606 3.22461 17.9749C3.22461 18.3891 3.5604 18.7249 3.97461 18.7249H19.9746C20.3888 18.7249 20.7246 18.3891 20.7246 17.9749C20.7246 17.5606 20.3888 17.2249 19.9746 17.2249H3.97461Z" fill="white"/>
</g>
<defs>
<clipPath id="clip0_2955_32670">
<rect width="24" height="24" fill="white"/>
</clipPath>
</defs>
</svg>
