<svg width="28" height="28" viewBox="0 0 28 28" fill="none" xmlns="http://www.w3.org/2000/svg">
<circle cx="14" cy="14" r="14" fill="#FFC9B1"/>
<path d="M10.7553 21.984C17.3575 21.984 20.9696 16.5129 20.9696 11.7698C20.9696 11.616 20.9662 11.4588 20.9593 11.3049C21.662 10.7968 22.2684 10.1674 22.75 9.44625C22.0956 9.73741 21.4008 9.92756 20.6893 10.0102C21.4384 9.56117 21.9993 8.85575 22.2681 8.02472C21.5633 8.44238 20.7926 8.737 19.989 8.89596C19.4475 8.32061 18.7316 7.93966 17.9519 7.81201C17.1722 7.68436 16.3721 7.81711 15.6754 8.18975C14.9788 8.56239 14.4242 9.15415 14.0976 9.87355C13.771 10.593 13.6904 11.3999 13.8684 12.1697C12.4414 12.0981 11.0454 11.7274 9.77082 11.0816C8.49627 10.4359 7.37165 9.52948 6.46987 8.4212C6.01154 9.21142 5.87129 10.1465 6.07763 11.0364C6.28396 11.9263 6.8214 12.7043 7.58071 13.2122C7.01067 13.1941 6.45311 13.0406 5.9541 12.7644V12.8088C5.95359 13.6381 6.24028 14.442 6.76543 15.0838C7.29059 15.7256 8.0218 16.1657 8.83477 16.3294C8.30671 16.4738 7.75249 16.4949 7.21499 16.3909C7.44439 17.1041 7.89073 17.7278 8.49171 18.1751C9.09269 18.6224 9.81832 18.8709 10.5673 18.886C9.29573 19.8849 7.72492 20.4266 6.10791 20.4241C5.82115 20.4236 5.53467 20.4061 5.25 20.3714C6.89271 21.4253 8.80362 21.9851 10.7553 21.984Z" fill="black"/>
</svg>
