<svg width="28" height="28" viewBox="0 0 28 28" fill="none" xmlns="http://www.w3.org/2000/svg">
<circle cx="14" cy="14" r="14" fill="#FFC9B1"/>
<path d="M15.121 13.8742C15.121 16.6236 12.9113 18.8525 10.1856 18.8525C7.45991 18.8525 5.25 16.6231 5.25 13.8742C5.25 11.1252 7.45974 8.89563 10.1856 8.89563C12.9115 8.89563 15.121 11.1247 15.121 13.8742Z" fill="black"/>
<path d="M20.5372 13.8742C20.5372 16.4623 19.4323 18.5611 18.0694 18.5611C16.7064 18.5611 15.6016 16.4623 15.6016 13.8742C15.6016 11.2862 16.7063 9.18732 18.0692 9.18732C19.4321 9.18732 20.537 11.2855 20.537 13.8742" fill="black"/>
<path d="M22.7513 13.8748C22.7513 16.193 22.3628 18.0735 21.8834 18.0735C21.404 18.0735 21.0156 16.1935 21.0156 13.8748C21.0156 11.556 21.4041 9.67603 21.8834 9.67603C22.3626 9.67603 22.7513 11.5558 22.7513 13.8748Z" fill="black"/>
</svg>
