<svg width="24" height="24" viewBox="0 0 24 24" fill="none" xmlns="http://www.w3.org/2000/svg">
<path fill-rule="evenodd" clip-rule="evenodd" d="M12 8.25002C9.92893 8.25002 8.25 9.92895 8.25 12C8.25 14.0711 9.92893 15.75 12 15.75C14.0711 15.75 15.75 14.0711 15.75 12C15.75 9.92895 14.0711 8.25002 12 8.25002ZM9.75 12C9.75 10.7574 10.7574 9.75002 12 9.75002C13.2426 9.75002 14.25 10.7574 14.25 12C14.25 13.2427 13.2426 14.25 12 14.25C10.7574 14.25 9.75 13.2427 9.75 12Z" fill="white"/>
<path fill-rule="evenodd" clip-rule="evenodd" d="M21.25 7.71495C21.25 7.00622 20.8749 6.35042 20.264 5.99108L13.014 1.72638C12.3881 1.3582 11.6119 1.3582 10.986 1.72638L3.73596 5.99108C3.12508 6.35042 2.75 7.00622 2.75 7.71495V16.2851C2.75 16.9938 3.12508 17.6496 3.73596 18.009L10.986 22.2737C11.6119 22.6418 12.3881 22.6418 13.014 22.2737L20.264 18.009C20.8749 17.6496 21.25 16.9938 21.25 16.2851V7.71495ZM4.25 16.5711V7.42898L12 2.87015L19.75 7.42898V16.5711L12 21.1299L4.25 16.5711Z" fill="white"/>
</svg>
