<svg width="28" height="28" viewBox="0 0 28 28" fill="none" xmlns="http://www.w3.org/2000/svg">
<g clip-path="url(#clip0_1652_26160)">
<path fill-rule="evenodd" clip-rule="evenodd" d="M13.9989 0.583008C10.6754 0.584732 7.46079 1.76188 4.92998 3.90395C2.39918 6.04603 0.717191 9.01335 0.184772 12.2753C-0.347646 15.5373 0.304218 18.8813 2.02382 21.7092C3.74342 24.5372 6.41862 26.6647 9.57105 27.7115C10.2665 27.8406 10.5285 27.4095 10.5285 27.043C10.5285 26.6765 10.5146 25.6139 10.5099 24.4521C6.61526 25.2934 5.79229 22.8086 5.79229 22.8086C5.15708 21.195 4.23905 20.7709 4.23905 20.7709C2.96864 19.9088 4.3341 19.9249 4.3341 19.9249C5.74129 20.024 6.48082 21.361 6.48082 21.361C7.72804 23.4886 9.75651 22.8731 10.554 22.5135C10.6792 21.6122 11.0432 20.9991 11.4442 20.651C8.33311 20.3006 5.06435 19.1066 5.06435 13.7727C5.04507 12.3893 5.56133 11.0516 6.50632 10.0361C6.36258 9.68576 5.88269 8.27045 6.64309 6.34801C6.64309 6.34801 7.81846 5.97459 10.4937 7.77485C12.7884 7.1509 15.2095 7.1509 17.5042 7.77485C20.1771 5.97459 21.3502 6.34801 21.3502 6.34801C22.1129 8.26584 21.633 9.68115 21.4893 10.0361C22.4372 11.0517 22.9546 12.3918 22.9335 13.7773C22.9335 19.1228 19.6578 20.3006 16.5421 20.6441C17.0428 21.0775 17.4903 21.9234 17.4903 23.2235C17.4903 25.086 17.474 26.5843 17.474 27.043C17.474 27.4141 17.7267 27.8475 18.4361 27.7115C21.5889 26.6646 24.2644 24.5367 25.9839 21.7082C27.7035 18.8798 28.355 15.5354 27.822 12.2731C27.289 9.01078 25.6062 6.04342 23.0745 3.90171C20.5429 1.76001 17.3275 0.583639 14.0036 0.583008H13.9989Z" fill="#FFC9B1"/>
<path d="M5.3028 20.5704C5.27266 20.6396 5.16138 20.6603 5.07097 20.6119C4.98056 20.5635 4.91334 20.4736 4.94579 20.4022C4.97825 20.3307 5.08721 20.3123 5.17762 20.3607C5.26803 20.4091 5.33757 20.5013 5.3028 20.5704Z" fill="#FFC9B1"/>
<path d="M5.87079 21.1997C5.82278 21.2238 5.76786 21.2305 5.71542 21.2187C5.66298 21.2069 5.61629 21.1774 5.58333 21.1352C5.49292 21.0384 5.47436 20.9047 5.54391 20.8447C5.61346 20.7848 5.73866 20.8125 5.82907 20.9093C5.91948 21.0061 5.94034 21.1398 5.87079 21.1997Z" fill="#FFC9B1"/>
<path d="M6.10957 21.8797C6.19071 21.9996 6.33676 22.0595 6.42254 21.9996C6.506 21.9396 6.50368 21.7829 6.42254 21.6653C6.3414 21.5478 6.19534 21.4901 6.10957 21.5478C6.08713 21.5693 6.06929 21.595 6.0571 21.6236C6.04491 21.6521 6.03862 21.6827 6.03862 21.7137C6.03862 21.7447 6.04491 21.7754 6.0571 21.8039C6.06929 21.8324 6.08713 21.8582 6.10957 21.8797Z" fill="#FFC9B1"/>
<path d="M7.17133 22.7741C7.09483 22.8594 6.93951 22.8363 6.81201 22.7211C6.6845 22.6058 6.65436 22.4491 6.73086 22.3661C6.80736 22.2831 6.96269 22.3062 7.09483 22.4191C7.22697 22.5321 7.25247 22.6911 7.17133 22.7741Z" fill="#FFC9B1"/>
<path d="M7.8714 23.3365C8.02904 23.3826 8.18668 23.3342 8.22146 23.2259C8.25159 23.1129 8.14959 22.9908 7.98963 22.9401C7.82967 22.8893 7.66971 22.9401 7.63957 23.0507C7.60943 23.1613 7.71376 23.2904 7.8714 23.3365Z" fill="#FFC9B1"/>
<path d="M9.36674 23.3042C9.36674 23.4171 9.23693 23.514 9.07001 23.5163C8.9031 23.5186 8.76632 23.4264 8.76632 23.3134C8.76632 23.2005 8.89614 23.1037 9.06305 23.1014C9.22997 23.099 9.36674 23.1889 9.36674 23.3042Z" fill="#FFC9B1"/>
<path d="M10.1712 23.3849C10.3381 23.3572 10.454 23.2397 10.4332 23.1267C10.4123 23.0138 10.2616 22.9446 10.0993 22.9746C9.93706 23.0045 9.81651 23.1244 9.83737 23.235C9.85824 23.3457 10.0043 23.4125 10.1712 23.3849Z" fill="#FFC9B1"/>
</g>
<defs>
<clipPath id="clip0_1652_26160">
<rect width="28" height="28" fill="white"/>
</clipPath>
</defs>
</svg>
