<svg width="28" height="28" viewBox="0 0 28 28" fill="none" xmlns="http://www.w3.org/2000/svg">
<circle cx="14" cy="14" r="14" fill="#FFC9B1"/>
<path d="M20.0645 8.28034C18.9491 7.76855 17.753 7.39149 16.5024 7.17553C16.4797 7.17136 16.4569 7.18178 16.4452 7.20261C16.2913 7.4762 16.121 7.83313 16.0016 8.11367C14.6565 7.9123 13.3184 7.9123 12.0009 8.11367C11.8815 7.82689 11.7049 7.4762 11.5504 7.20261C11.5387 7.18247 11.5159 7.17205 11.4932 7.17553C10.2433 7.3908 9.04718 7.76786 7.9311 8.28034C7.92144 8.2845 7.91316 8.29146 7.90766 8.30048C5.63893 11.6899 5.01743 14.996 5.32232 18.2612C5.3237 18.2771 5.33267 18.2924 5.34508 18.3021C6.84192 19.4014 8.29187 20.0687 9.71489 20.511C9.73767 20.518 9.7618 20.5097 9.77629 20.4909C10.1129 20.0312 10.413 19.5465 10.6702 19.0368C10.6854 19.007 10.6709 18.9715 10.6399 18.9597C10.164 18.7792 9.71075 18.5591 9.2748 18.3091C9.24032 18.2889 9.23756 18.2396 9.26928 18.216C9.36102 18.1473 9.45279 18.0757 9.54038 18.0035C9.55623 17.9903 9.57832 17.9875 9.59695 17.9959C12.4609 19.3035 15.5615 19.3035 18.3917 17.9959C18.4104 17.9868 18.4325 17.9896 18.449 18.0028C18.5366 18.075 18.6284 18.1473 18.7208 18.216C18.7525 18.2396 18.7504 18.2889 18.716 18.3091C18.28 18.5639 17.8268 18.7792 17.3502 18.959C17.3191 18.9708 17.3053 19.007 17.3205 19.0368C17.5833 19.5458 17.8834 20.0305 18.2138 20.4902C18.2276 20.5097 18.2524 20.518 18.2752 20.511C19.7051 20.0687 21.155 19.4014 22.6519 18.3021C22.665 18.2924 22.6733 18.2778 22.6747 18.2618C23.0395 14.487 22.0635 11.208 20.0872 8.30117C20.0824 8.29146 20.0742 8.2845 20.0645 8.28034ZM11.0979 16.273C10.2357 16.273 9.5252 15.4814 9.5252 14.5092C9.5252 13.537 10.2219 12.7454 11.0979 12.7454C11.9808 12.7454 12.6844 13.544 12.6706 14.5092C12.6706 15.4814 11.9739 16.273 11.0979 16.273ZM16.9128 16.273C16.0506 16.273 15.3401 15.4814 15.3401 14.5092C15.3401 13.537 16.0368 12.7454 16.9128 12.7454C17.7958 12.7454 18.4993 13.544 18.4856 14.5092C18.4856 15.4814 17.7958 16.273 16.9128 16.273Z" fill="black"/>
</svg>
